<?xml version="1.0" encoding="UTF-8"?>
<svg version="1.1" xmlns="http://www.w3.org/2000/svg" width="512" height="512">
<path d="M0 0 C1.01790619 0.00215515 2.03581238 0.0043103 3.08456421 0.00653076 C17.69363523 0.05620146 32.02575853 0.30709809 46.375 3.3125 C47.34985352 3.51117676 48.32470703 3.70985352 49.32910156 3.91455078 C97.7109774 14.03517194 141.69928269 35.9516877 177.375 70.3125 C178.3640332 71.26068604 178.3640332 71.26068604 179.37304688 72.22802734 C188.86130305 81.37247479 197.6012044 90.66984009 205.375 101.3125 C206.23306152 102.46355017 207.09113451 103.61459177 207.94921875 104.765625 C213.98736829 112.95680614 219.34595521 121.47054105 224.375 130.3125 C224.73948242 130.94430176 225.10396484 131.57610352 225.47949219 132.22705078 C247.08534998 169.97532572 256.85198095 212.74189997 256.6875 255.9375 C256.68534485 256.95540619 256.6831897 257.97331238 256.68096924 259.02206421 C256.63129854 273.63113523 256.38040191 287.96325853 253.375 302.3125 C253.07698486 303.77478027 253.07698486 303.77478027 252.77294922 305.26660156 C240.1937998 365.40153158 207.816423 421.83098926 158.375 459.3125 C159.550625 459.828125 160.72625 460.34375 161.9375 460.875 C169.34833555 464.63944213 173.96042025 469.77084356 176.71484375 477.640625 C178.79459449 486.0580777 177.71698554 493.80688487 173.375 501.3125 C169.42021345 506.53882552 164.60167651 510.14427405 158.375 512.3125 C154.07039131 512.88426494 149.80765644 512.8526657 145.47021484 512.82043457 C144.17862143 512.82667453 142.88702801 512.8329145 141.55629539 512.83934355 C137.98677501 512.85598898 134.41768426 512.84781266 130.84816265 512.83539867 C126.99259773 512.82633073 123.13710555 512.84032653 119.28155518 512.85131836 C111.73468208 512.86908962 104.18796826 512.86526984 96.64108896 512.8536678 C90.50670472 512.84462825 84.37236507 512.84341173 78.23797607 512.84776306 C77.36435562 512.84837599 76.49073518 512.84898893 75.59064138 512.84962043 C73.81580749 512.85089935 72.04097361 512.85219621 70.26613975 512.8535108 C53.62989221 512.86491251 36.9937329 512.85180931 20.35749984 512.83030933 C6.08789843 512.81243872 -8.18157281 512.81554294 -22.45117188 512.83398438 C-39.02855001 512.85539831 -55.60585086 512.86381391 -72.18324089 512.85153532 C-73.95148594 512.85026115 -75.719731 512.84900366 -77.48797607 512.84776306 C-78.35794932 512.84714596 -79.22792257 512.84652886 -80.12425864 512.84589306 C-86.25011466 512.84244172 -92.3759216 512.84826382 -98.50177002 512.85768127 C-105.96882534 512.86890845 -113.43571249 512.86584615 -120.90274858 512.8445583 C-124.71139053 512.83405748 -128.51975226 512.82990932 -132.32839203 512.84315491 C-136.45924279 512.85730363 -140.58938818 512.84039147 -144.72021484 512.82043457 C-145.92099482 512.82935746 -147.12177479 512.83828034 -148.35894203 512.84747362 C-156.75882116 512.76866164 -163.17645677 511.29398566 -169.375 505.1875 C-174.51878634 499.65528128 -176.79651673 493.31463398 -177.125 485.8125 C-176.75420757 477.34407936 -173.81108949 470.80770697 -167.796875 464.8828125 C-164.62554543 462.58987278 -161.15539895 460.98182262 -157.625 459.3125 C-158.46417969 458.61769531 -159.30335938 457.92289062 -160.16796875 457.20703125 C-176.47556373 443.49802612 -192.14895368 428.64523738 -204.625 411.3125 C-205.47676801 410.16585128 -206.32965463 409.02003275 -207.18359375 407.875 C-213.23103133 399.68339798 -218.61598412 391.17346602 -223.625 382.3125 C-224.0271875 381.60528809 -224.429375 380.89807617 -224.84375 380.16943359 C-237.8691741 357.03404164 -246.61801461 331.86287591 -251.9375 305.875 C-252.08485596 305.15610596 -252.23221191 304.43721191 -252.3840332 303.6965332 C-255.35789088 288.05024391 -255.99800362 272.57681954 -255.9375 256.6875 C-255.93534485 255.66959381 -255.9331897 254.65168762 -255.93096924 253.60293579 C-255.88129854 238.99386477 -255.63040191 224.66174147 -252.625 210.3125 C-252.42632324 209.33764648 -252.22764648 208.36279297 -252.02294922 207.35839844 C-241.90232806 158.9765226 -219.9858123 114.98821731 -185.625 79.3125 C-184.99287598 78.65314453 -184.36075195 77.99378906 -183.70947266 77.31445312 C-174.56502521 67.82619695 -165.26765991 59.0862956 -154.625 51.3125 C-153.47394983 50.45443848 -152.32290823 49.59636549 -151.171875 48.73828125 C-142.98224019 42.70072604 -134.47961724 37.31792698 -125.625 32.3125 C-124.91778809 31.9103125 -124.21057617 31.508125 -123.48193359 31.09375 C-100.34654164 18.0683259 -75.17537591 9.31948539 -49.1875 4 C-48.46860596 3.85264404 -47.74971191 3.70528809 -47.0090332 3.5534668 C-31.36274391 0.57960912 -15.88931954 -0.06050362 0 0 Z " fill="#EFC319" transform="translate(255.625,-0.3125)"/>
<path d="M0 0 C0.82967285 0.20286621 1.6593457 0.40573242 2.51416016 0.61474609 C23.46027037 5.82623932 42.56298138 14.94559509 59 29 C59.91458984 29.71542969 59.91458984 29.71542969 60.84765625 30.4453125 C74.02633217 40.95222952 84.24792483 57.14790206 86.24267578 74.05712891 C87.0627513 86.24656675 84.71292563 96.06922701 77.875 106.125 C72.04038557 112.75689094 62.65042678 117.00187383 54 118 C52.4324733 118.02510989 50.86457948 118.03198862 49.296875 118.0234375 C48.49088867 118.02005371 47.68490234 118.01666992 46.85449219 118.01318359 C45.93651855 118.00665771 45.93651855 118.00665771 45 118 C44.90633924 122.54321883 44.91287736 127.08100356 44.9375 131.625 C44.89592773 133.55279297 44.89592773 133.55279297 44.85351562 135.51953125 C44.72565504 142.39147168 44.72565504 142.39147168 47.96923828 148.09667969 C50.32123564 149.68126645 50.32123564 149.68126645 52.77563477 150.80224609 C55.31002217 152.16693763 56.44030979 153.61377772 58 156 C59.27423828 155.51660156 59.27423828 155.51660156 60.57421875 155.0234375 C68.50184656 152.65509259 77.64246099 152.74766514 85.0390625 156.6796875 C91.56973854 161.07683591 95.73270186 166.41485712 98 174 C98.25 177.5625 98.25 177.5625 98 180 C98.969375 179.9175 99.93875 179.835 100.9375 179.75 C107.47851439 179.78964251 113.03858767 182.80087812 117.8125 187.125 C123.57578631 193.42440596 125.74889329 200.81559832 125.37890625 209.265625 C124.3536809 216.66415848 121.46541031 222.21476905 116.171875 227.4296875 C108.46808332 232.99969516 102.41650368 233.57720022 93.09521484 233.50793457 C91.80362143 233.51417453 90.51202801 233.5204145 89.18129539 233.52684355 C85.61177501 233.54348898 82.04268426 233.53531266 78.47316265 233.52289867 C74.61759773 233.51383073 70.76210555 233.52782653 66.90655518 233.53881836 C59.35968208 233.55658962 51.81296826 233.55276984 44.26608896 233.5411678 C38.13170472 233.53212825 31.99736507 233.53091173 25.86297607 233.53526306 C24.98935562 233.53587599 24.11573518 233.53648893 23.21564138 233.53712043 C21.44080749 233.53839935 19.66597361 233.53969621 17.89113975 233.5410108 C1.25489221 233.55241251 -15.3812671 233.53930931 -32.01750016 233.51780933 C-46.28710157 233.49993872 -60.55657281 233.50304294 -74.82617188 233.52148438 C-91.40355001 233.54289831 -107.98085086 233.55131391 -124.55824089 233.53903532 C-126.32648594 233.53776115 -128.094731 233.53650366 -129.86297607 233.53526306 C-130.73294932 233.53464596 -131.60292257 233.53402886 -132.49925864 233.53339306 C-138.62511466 233.52994172 -144.7509216 233.53576382 -150.87677002 233.54518127 C-158.34382534 233.55640845 -165.81071249 233.55334615 -173.27774858 233.5320583 C-177.08639053 233.52155748 -180.89475226 233.51740932 -184.70339203 233.53065491 C-188.83424279 233.54480363 -192.96438818 233.52789147 -197.09521484 233.50793457 C-198.8963848 233.5213189 -198.8963848 233.5213189 -200.73394203 233.53497362 C-209.13382116 233.45616164 -215.55145677 231.98148566 -221.75 225.875 C-226.89378634 220.34278128 -229.17151673 214.00213398 -229.5 206.5 C-229.1727486 199.02600031 -226.89149867 192.67646366 -221.8125 187.125 C-217.03858767 182.80087812 -211.47851439 179.78964251 -204.9375 179.75 C-203.968125 179.8325 -202.99875 179.915 -202 180 C-201.98582031 179.443125 -201.97164062 178.88625 -201.95703125 178.3125 C-201.43067296 169.89076743 -198.16176576 164.76260799 -192 159.125 C-186.78610292 154.60488762 -182.42218683 153.72236783 -175.5625 153.75 C-173.64630859 153.74226563 -173.64630859 153.74226563 -171.69140625 153.734375 C-168.11449245 153.99176139 -165.32683595 154.70423082 -162 156 C-161.319375 155.0925 -160.63875 154.185 -159.9375 153.25 C-157.85868002 150.47824002 -156.78901344 149.92360832 -153.375 148.6875 C-151.42522815 147.74946936 -151.42522815 147.74946936 -150 146 C-148.93828258 141.26606795 -149.02181265 136.58461411 -149.0625 131.75 C-149.04638672 130.43257812 -149.03027344 129.11515625 -149.01367188 127.7578125 C-148.97830606 124.50415797 -148.97496697 121.25365955 -149 118 C-149.72880371 118.01885254 -150.45760742 118.03770508 -151.20849609 118.05712891 C-162.16575921 118.22273444 -171.6216503 115.36662446 -180 108 C-188.39900362 98.55520604 -190.58917787 89.16641337 -190.27734375 76.73046875 C-188.9813642 59.29863113 -179.96196037 43.85959759 -167.0625 32.3125 C-165.71480033 31.20044919 -164.36038015 30.09650227 -163 29 C-162.26394531 28.36578125 -161.52789062 27.7315625 -160.76953125 27.078125 C-154.0360397 21.41012885 -146.76789878 17.05918065 -139 13 C-138.41089844 12.69175293 -137.82179688 12.38350586 -137.21484375 12.06591797 C-96.68554873 -8.76658505 -43.70591362 -11.19116073 0 0 Z " fill="#4FB96E" transform="translate(308,279)"/>
<path d="M0 0 C0.82967285 0.20286621 1.6593457 0.40573242 2.51416016 0.61474609 C23.46027037 5.82623932 42.56298138 14.94559509 59 29 C59.60972656 29.47695313 60.21945312 29.95390625 60.84765625 30.4453125 C74.02633217 40.95222952 84.24792483 57.14790206 86.24267578 74.05712891 C87.0627513 86.24656675 84.71292563 96.06922701 77.875 106.125 C72.04038557 112.75689094 62.65042678 117.00187383 54 118 C50.997755 118.0738257 48.00235993 118.0600472 45 118 C44.91363281 117.00742187 44.82726562 116.01484375 44.73828125 114.9921875 C42.82295953 95.57429019 35.4103073 77.78914103 20.3984375 64.73828125 C4.13368242 52.43425183 -12.60798936 48.35460892 -32.52734375 48.43359375 C-34.1715174 48.42833798 -35.81568804 48.42205451 -37.45985413 48.41481018 C-40.88117817 48.40449026 -44.30208412 48.4088448 -47.72338867 48.42358398 C-52.06127428 48.44076272 -56.39783388 48.4172438 -60.73557186 48.38209438 C-64.12387001 48.35990903 -67.51186107 48.3616122 -70.90020943 48.3698597 C-72.49745705 48.37066764 -74.09472996 48.3640313 -75.69190788 48.34908867 C-96.84241556 48.18145526 -114.62072269 55.15921279 -130 70 C-140.04949123 81.40428612 -146.44333889 95.37147055 -148.125 110.4375 C-148.21136719 111.16904297 -148.29773438 111.90058594 -148.38671875 112.65429688 C-148.59628393 114.43560094 -148.79887868 116.21772281 -149 118 C-159.90946644 118.75965337 -168.98710428 116.19871415 -177.9296875 109.8203125 C-185.59773109 103.07822134 -189.49109159 94.50112568 -190.27734375 84.45703125 C-190.75788236 65.60069604 -183.90990056 49.71676934 -171 36 C-168.44673208 33.50657429 -165.77727147 31.23855402 -163 29 C-162.26394531 28.36578125 -161.52789062 27.7315625 -160.76953125 27.078125 C-154.0360397 21.41012885 -146.76789878 17.05918065 -139 13 C-138.41089844 12.69175293 -137.82179687 12.38350586 -137.21484375 12.06591797 C-96.68554873 -8.76658505 -43.70591362 -11.19116073 0 0 Z " fill="#802F34" transform="translate(308,279)"/>
<path d="M0 0 C1.65228487 -0.004574 3.30456784 -0.00988313 4.95684814 -0.0158844 C8.40620692 -0.02477242 11.85533368 -0.02244355 15.3046875 -0.01245117 C19.68295704 -0.00099186 24.06041631 -0.02114814 28.43857956 -0.05036831 C31.8482557 -0.06889155 35.25774364 -0.06840572 38.66745758 -0.06273079 C40.27948387 -0.0625794 41.89152447 -0.06846921 43.50350189 -0.08102226 C64.93155275 -0.22437415 83.77439553 5.92491048 99.4296875 21.00732422 C116.17638249 38.08731586 119.01206709 58.69018568 118.890625 81.49609375 C118.8856008 83.14127468 118.88103952 84.7864571 118.87695312 86.43164062 C118.86601842 90.43232873 118.8488043 94.43294463 118.828125 98.43359375 C118.03075928 98.34110352 117.23339355 98.24861328 116.41186523 98.15332031 C108.50453303 97.26359885 108.50453303 97.26359885 100.890625 99.18359375 C100.03597656 99.5290625 99.18132812 99.87453125 98.30078125 100.23046875 C95.70914967 101.4914838 93.27395675 102.91096504 90.828125 104.43359375 C90.415625 103.84191406 90.003125 103.25023437 89.578125 102.640625 C84.93110738 96.28209419 80.37624493 91.94963373 72.828125 89.43359375 C65.59810743 88.87319849 58.89059163 88.42466537 52.57421875 92.36328125 C50.42244774 93.68226393 48.18341924 94.53978978 45.828125 95.43359375 C45.4878125 94.84191406 45.1475 94.25023437 44.796875 93.640625 C40.99218727 87.43776974 37.00886186 83.11034676 29.9453125 80.82421875 C22.43971917 79.43942293 14.57271606 79.66811578 7.828125 83.43359375 C2.90029871 86.8451658 0.4915364 90.20920985 -2.171875 95.43359375 C-4.48198489 94.56730254 -6.70090727 93.73092759 -8.79296875 92.41015625 C-15.2287228 88.50718283 -21.83160187 88.49337899 -29.171875 89.43359375 C-35.50330656 91.351695 -39.93900177 94.53529534 -43.91796875 99.78515625 C-45.21493381 101.49020066 -46.62980542 102.94996996 -48.171875 104.43359375 C-48.66816406 104.09585938 -49.16445312 103.758125 -49.67578125 103.41015625 C-56.3142692 99.05168029 -61.36178096 97.1424061 -69.40625 97.89453125 C-70.48616211 97.9929834 -71.56607422 98.09143555 -72.67871094 98.19287109 C-73.50145508 98.27230957 -74.32419922 98.35174805 -75.171875 98.43359375 C-75.19678816 93.61385464 -75.21483498 88.7941539 -75.22680664 83.97436523 C-75.23180303 82.33829087 -75.23860239 80.7022209 -75.24731445 79.06616211 C-75.37047262 55.32561491 -70.63702685 37.29546321 -54.171875 19.43359375 C-48.82252598 14.19627298 -42.85431294 10.51114576 -36.234375 7.12109375 C-35.28679321 6.63249878 -35.28679321 6.63249878 -34.32006836 6.1340332 C-23.12806791 0.67780882 -12.22796169 -0.02993809 0 0 Z " fill="#24AD5E" transform="translate(234.171875,326.56640625)"/>
<path d="M0 0 C3.23339844 1.07543945 3.23339844 1.07543945 6.609375 2.61328125 C7.23783325 2.8947702 7.8662915 3.17625916 8.51379395 3.46627808 C10.5981814 4.40302491 12.6738483 5.35765577 14.75 6.3125 C16.22302644 6.97896228 17.6966751 7.6440508 19.17089844 8.30786133 C21.53824452 9.37423894 23.90498238 10.44183353 26.26959229 11.51426697 C32.6885705 14.42344772 39.13574466 17.264586 45.59375 20.0859375 C47.54983779 20.94222582 49.50589262 21.79858943 51.46191406 22.6550293 C54.34306706 23.91635784 57.22470741 25.17648506 60.10827637 26.43228149 C62.8089572 27.60962299 65.50633647 28.79424408 68.203125 29.98046875 C69.00488159 30.32786102 69.80663818 30.6752533 70.63269043 31.03317261 C81.57974018 35.86961027 81.57974018 35.86961027 85 41 C84.8647835 44.71845364 84.65946727 47.14681361 82.35522461 50.12792969 C79.36861119 52.50186476 77.20400726 52.89127434 73.44140625 53.515625 C72.4121981 53.6900412 72.4121981 53.6900412 71.36219788 53.86798096 C59.92774904 55.74802176 48.42090152 57.20720785 36.9375 58.75 C21.97797994 60.77455358 7.02258718 62.81066773 -7.90234375 65.078125 C-8.98185806 65.2418158 -10.06137238 65.40550659 -11.17359924 65.57415771 C-16.23479815 66.34396928 -21.29417379 67.12410429 -26.35180664 67.91699219 C-28.16159503 68.19483131 -29.97140806 68.47250993 -31.78125 68.75 C-32.96973793 68.94157684 -32.96973793 68.94157684 -34.18223572 69.13702393 C-48.86598265 71.3657711 -48.86598265 71.3657711 -54.125 68 C-56.72753703 63.83594076 -56.69442504 61.86097528 -56 57 C-53.38259137 53.4020862 -50.89881164 52.43276874 -46.5581665 51.7088623 C-45.85319031 51.60900024 -45.14821411 51.50913818 -44.421875 51.40625 C-43.3027774 51.2289032 -43.3027774 51.2289032 -42.16107178 51.04797363 C-39.77662347 50.67771961 -37.38965399 50.33490537 -35 50 C-33.85277466 49.83685303 -33.85277466 49.83685303 -32.68237305 49.67041016 C-28.01822054 49.01410259 -23.34922724 48.40149099 -18.67666626 47.80828857 C-14.51121424 47.27910115 -10.34755054 46.73611658 -6.18359375 46.1953125 C-4.9714344 46.03840439 -4.9714344 46.03840439 -3.73478699 45.87832642 C8.89929288 44.24023914 21.50015378 42.41281788 34.08203125 40.4140625 C34.94622681 40.27718018 35.81042236 40.14029785 36.70080566 39.99926758 C38.80060578 39.66661159 40.90031291 39.33336867 43 39 C41.82083008 38.48614746 40.64166016 37.97229492 39.42675781 37.44287109 C34.99712157 35.5115287 30.56934894 33.57594476 26.14208984 31.63916016 C24.23600985 30.80599434 22.32944519 29.97393632 20.42236328 29.14306641 C-9.16735957 16.24896064 -9.16735957 16.24896064 -12 12 C-12.56551375 7.63746537 -12.49322651 5.70247412 -9.9375 2.0625 C-6.23019061 -0.54050446 -4.4694031 -0.35021442 0 0 Z " fill="#384B5C" transform="translate(127,177)"/>
<path d="M0 0 C3 2.0625 3 2.0625 5 5 C5.625 8.5 5.625 8.5 5 12 C0.9335188 17.16599515 -4.21665367 19.23907556 -10.15625 21.79296875 C-11.13613892 22.22507156 -12.11602783 22.65717438 -13.12561035 23.10237122 C-16.24572131 24.47506785 -19.37266352 25.83135786 -22.5 27.1875 C-24.60332656 28.11027583 -26.70619651 29.0340932 -28.80859375 29.95898438 C-43.89650537 36.58206093 -43.89650537 36.58206093 -50 39 C-49.23230789 39.10609085 -48.46461578 39.2121817 -47.67366028 39.32148743 C-40.33677864 40.33549165 -32.99996197 41.34996427 -25.66321278 42.36492634 C-21.8939174 42.88635287 -18.12459959 43.40761601 -14.35522461 43.9284668 C-12.88720652 44.13134393 -11.41918894 44.33422477 -9.95117188 44.53710938 C-9.22923079 44.63686506 -8.5072897 44.73662075 -7.7634716 44.83939934 C-4.16628179 45.33671736 -0.56929407 45.83543008 3.02731323 46.33694458 C4.4223425 46.53143626 5.81737219 46.72592483 7.21240234 46.92041016 C7.88448668 47.0141498 8.55657101 47.10788944 9.24902153 47.20446968 C13.31340475 47.76991094 17.37965508 48.31893862 21.44775391 48.85693359 C22.87526726 49.04983223 22.87526726 49.04983223 24.33161926 49.24662781 C26.012148 49.47362037 27.69346569 49.6949086 29.3757782 49.90827942 C43.14567726 51.79510215 43.14567726 51.79510215 47.75776672 55.35783386 C49.56329047 57.74463996 49.54447682 60.07293465 49.3828125 62.98828125 C49 65 49 65 47.375 68.0625 C37.66013409 73.63955265 17.80067466 67.44893074 7 65.9375 C4.77744083 65.62993213 2.55486563 65.32248001 0.33227539 65.01513672 C-18.96628988 62.33374396 -38.24022531 59.48572963 -57.50585938 56.57788086 C-59.15218605 56.3305999 -59.15218605 56.3305999 -60.83177185 56.07832336 C-62.86697772 55.77243894 -64.90188824 55.46457919 -66.93641663 55.15422058 C-72.25328573 54.35609647 -77.54572044 53.71679086 -82.90611267 53.2906189 C-86.71621229 52.76180011 -89.03665362 51.22607721 -91.375 48.25 C-92.32835544 44.81792041 -91.91654656 42.42177384 -91 39 C-87.07360408 35.19572928 -82.51937554 33.1947228 -77.58984375 31.015625 C-76.76157578 30.64244644 -75.9333078 30.26926788 -75.0799408 29.88478088 C-72.36908179 28.66569589 -69.65361025 27.45733517 -66.9375 26.25 C-65.05531599 25.40886181 -63.17331922 24.56730452 -61.29150391 23.7253418 C-58.40197895 22.43314764 -55.51199805 21.14203024 -52.6204834 19.85429382 C-47.07779836 17.3846405 -41.54868165 14.88829595 -36.03425598 12.35617065 C-32.75898398 10.85314607 -29.47855897 9.36159667 -26.19729614 7.8717041 C-24.66040218 7.17072357 -23.1257448 6.46481656 -21.59347534 5.75378418 C-19.46162199 4.76584141 -17.32201343 3.79700819 -15.1796875 2.83203125 C-13.98069824 2.28264893 -12.78170898 1.7332666 -11.54638672 1.16723633 C-7.29381841 -0.23242835 -4.45197756 -0.36426328 0 0 Z " fill="#384A5C" transform="translate(392,177)"/>
<path d="M0 0 C5.29666583 1.82975729 7.62756992 5.58701615 10.0703125 10.4140625 C10.56273437 11.53554687 11.05515625 12.65703125 11.5625 13.8125 C17.95076559 27.37806343 28.96891577 37.11914329 42.953125 42.4609375 C45.42417709 43.18360368 47.62462738 43.46159537 50.1875 43.625 C53.34090666 43.88264957 55.39932292 44.41064525 58 46.25 C60.42080851 49.16738461 60.84192876 49.71974241 61 53.25 C60.45909214 57.03635505 60.19640583 58.63295757 57.4375 61.1875 C47.74831791 64.41722736 37.07804925 60.64347506 28.25 56.4375 C10.51744182 47.02932869 -2.90670232 31.15196462 -9.5625 12.1875 C-10.25 8.3125 -10.25 8.3125 -9.5625 5.1875 C-6.46443882 1.56050155 -4.80181795 0.25272726 0 0 Z " fill="#E57F24" transform="translate(380.5625,87.8125)"/>
<path d="M0 0 C3.7733577 1.09770406 5.28274379 1.72477055 7.4375 5 C8.0411109 10.95513684 6.59687897 14.70689054 3.875 19.8125 C3.50930908 20.51463623 3.14361816 21.21677246 2.7668457 21.94018555 C-7.36282421 41.0291126 -21.79596202 54.40876152 -42.5625 61 C-46.375 61.8125 -46.375 61.8125 -49.5625 62 C-50.22894531 62.07347656 -50.89539063 62.14695313 -51.58203125 62.22265625 C-55.41843225 62.50024371 -57.34457845 62.14528104 -60.5625 60 C-62.77068177 56.68772734 -63.38272883 54.84772499 -63.1015625 50.93359375 C-62.32977005 48.16520777 -60.76867638 46.51712457 -58.44921875 44.87890625 C-55.69660015 43.59663051 -53.11844651 43.54356223 -50.1171875 43.3515625 C-37.70800739 41.64387716 -27.82562862 33.153859 -19.828125 24.09375 C-16.57107344 19.64618994 -14.11771468 14.85652561 -11.74414062 9.88916016 C-9.0766925 4.42789792 -6.67105366 0 0 0 Z " fill="#E57F24" transform="translate(133.5625,88)"/>
<path d="M0 0 C4.0512599 0.82678773 6.73762525 2.21482801 9.0625 5.625 C9.94384986 9.80463661 9.85457476 13.86905042 9.75 18.125 C9.76482422 19.25292969 9.77964844 20.38085938 9.79492188 21.54296875 C9.71268768 29.71801551 9.71268768 29.71801551 6.73828125 33.8671875 C3.17394891 36.20871969 1.24812666 36.37243333 -2.9375 35.625 C-5.6171875 33.8671875 -5.6171875 33.8671875 -7.9375 30.625 C-8.68668911 26.44800369 -8.63506621 22.35802913 -8.5625 18.125 C-8.58183594 16.99707031 -8.60117187 15.86914062 -8.62109375 14.70703125 C-8.56675476 5.5237427 -8.56675476 5.5237427 -5.58203125 2.3828125 C-2.9375 0.625 -2.9375 0.625 0 0 Z " fill="#4B8056" transform="translate(290.9375,361.375)"/>
<path d="M0 0 C0.75539062 0.09152344 1.51078125 0.18304688 2.2890625 0.27734375 C5.07724831 1.32682942 5.83636089 2.52602791 7.375 5.0625 C8.02331433 9.18419603 7.88445507 13.33267792 7.875 17.5 C7.90335938 18.63244141 7.93171875 19.76488281 7.9609375 20.93164062 C7.98045658 29.21261078 7.98045658 29.21261078 5.0625 33.30859375 C1.49001504 35.64005559 -0.4371788 35.81032522 -4.625 35.0625 C-7.3046875 33.3046875 -7.3046875 33.3046875 -9.625 30.0625 C-10.37418911 25.88550369 -10.32256621 21.79552913 -10.25 17.5625 C-10.26933594 16.43457031 -10.28867188 15.30664062 -10.30859375 14.14453125 C-10.26032978 5.98791959 -10.26032978 5.98791959 -7.375 1.78515625 C-4.45883002 -0.04159228 -3.34830266 -0.51202566 0 0 Z " fill="#4B8056" transform="translate(221.625,361.9375)"/>
<path d="M0 0 C2.69990662 1.79993774 4.5418865 3.083773 6 6 C6.14943856 8.26744274 6.22144902 10.5403175 6.25 12.8125 C6.27578125 14.03582031 6.3015625 15.25914062 6.328125 16.51953125 C5.97873546 20.22555603 5.23569119 22.06429871 3 25 C-0.19233485 26.59616743 -3.53461497 26.51466114 -7 26 C-9.43119623 24.12984906 -10.64069173 22.71861655 -12 20 C-12.17522676 17.73354234 -12.26728256 15.46027146 -12.3125 13.1875 C-12.34988281 11.96417969 -12.38726562 10.74085938 -12.42578125 9.48046875 C-11.92980695 5.4262201 -10.84899719 3.85956861 -8 1 C-5.14675563 -0.42662219 -3.16545451 -0.31033868 0 0 Z " fill="#4A8156" transform="translate(259,353)"/>
<path d="M0 0 C4.09572746 0.7313799 5.76688993 1.48996198 8.5 4.625 C9.6659741 8.63303597 9.93240501 10.67782711 8.1875 14.5 C6.5 16.625 6.5 16.625 4.5 17.625 C-2.60601719 18.1980659 -2.60601719 18.1980659 -5.9375 16.0625 C-8.0665223 12.74122522 -8.56817573 10.57919205 -8.5 6.625 C-6.0768816 2.46026525 -4.80003453 0.85714902 0 0 Z " fill="#25AE5F" transform="translate(255.5,467.375)"/>
<path d="M0 0 C2.31495619 1.80855953 2.84331938 3.0341334 3.30859375 5.90234375 C3.52512213 9.42585097 3.36944273 11.42366934 1.4375 14.4375 C-1.83565762 16.53567796 -4.11417724 17 -8 17 C-10.80189446 15.23358828 -12.51524911 13.96950178 -14 11 C-14.43023798 7.12785818 -14.31669086 5.47503629 -12.125 2.1875 C-8.35869653 -1.68957711 -5.03234341 -1.29667744 0 0 Z " fill="#25AE5F" transform="translate(376,460)"/>
<path d="M0 0 C2.4375 1.625 2.4375 1.625 4 4 C4.59874771 8.11639054 4.42928602 10.24049397 2.375 13.875 C-0.55883463 16.50000993 -2.07388673 17 -6 17 C-11.61176471 14.77647059 -11.61176471 14.77647059 -13 12 C-13.58394161 4.75912409 -13.58394161 4.75912409 -11.125 1.5625 C-7.08746789 -1.40627361 -4.90824906 -1.10012479 0 0 Z " fill="#25AE5F" transform="translate(296,451)"/>
<path d="M0 0 C2.4375 1.5625 2.4375 1.5625 4 4 C4.80016627 8.01732963 4.66540643 10.96196597 2.4375 14.4375 C-0.83565762 16.53567796 -3.11417724 17 -7 17 C-9.80189446 15.23358828 -11.51524911 13.96950178 -13 11 C-13.43023798 7.12785818 -13.31669086 5.47503629 -11.125 2.1875 C-7.38445041 -1.66306575 -5.14450674 -1.1530791 0 0 Z " fill="#25AE5F" transform="translate(225,451)"/>
<path d="M0 0 C3.12909866 1.18239427 4.32242727 2.80328161 5.87109375 5.70703125 C6.50146985 9.48928785 6.17325373 11.16314329 4.30859375 14.51953125 C1.06664394 17.42897338 -0.78727357 17.85674272 -5.12890625 17.70703125 C-8.40413783 15.86099163 -10.61668437 14.52541892 -11.67578125 10.765625 C-11.94390618 6.84057389 -11.31272687 4.98850657 -9.12890625 1.64453125 C-5.6227775 -0.61984357 -3.99727363 -0.80852226 0 0 Z " fill="#25AE5F" transform="translate(144.12890625,459.29296875)"/>
<path d="M0 0 C3.5 0.625 3.5 0.625 6.4375 2.625 C9.29117716 6.77580314 9.2099846 8.6551078 8.5 13.625 C7 16.125 7 16.125 4.5 17.625 C-0.4698922 18.3349846 -2.34919686 18.41617716 -6.5 15.5625 C-9.02975133 11.84692774 -9.2878128 10.0367517 -8.5 5.625 C-5.90783917 1.93313458 -4.45850936 0.79616239 0 0 Z " fill="#24AE5F" transform="translate(326.5,467.375)"/>
<path d="M0 0 C3.69186542 2.59216083 4.82883761 4.04149064 5.625 8.5 C5 12 5 12 3 14.9375 C-1.15080314 17.79117716 -3.0301078 17.7099846 -8 17 C-10.5 15.5 -10.5 15.5 -12 13 C-12.7099846 8.0301078 -12.79117716 6.15080314 -9.9375 2 C-6.22192774 -0.52975133 -4.4117517 -0.7878128 0 0 Z " fill="#24AE5F" transform="translate(189,468)"/>
</svg>
